<?xml version="1.0" encoding="utf-8"?>
<!-- Generator: Adobe Illustrator 25.2.1, SVG Export Plug-In . SVG Version: 6.00 Build 0)  -->
<svg version="1.1" id="레이어_1" xmlns="http://www.w3.org/2000/svg" xmlns:xlink="http://www.w3.org/1999/xlink" x="0px"
	 y="0px" viewBox="0 0 857.5 559" style="enable-background:new 0 0 857.5 559;" xml:space="preserve">
<style type="text/css">
	.st0{fill:#9A22EA;}
	.st1{opacity:0.4;clip-path:url(#SVGID_2_);fill:#5E1A68;}
	.st2{clip-path:url(#SVGID_2_);}
	.st3{fill:#F4B84E;}
	.st4{opacity:0.4;fill:#40016D;}
	.st5{opacity:0.4;fill:#F1A635;}
	.st6{opacity:0.5;fill:#F4B84E;}
</style>
<path class="st0" d="M829.2,62.7c0-9.2-3.8-18.4-10.4-24.7c-6.9-6.8-16.8-9.8-26.4-9.6c-243.8,0.5-487.5,0.1-731.3,0.1
	C44,28.6,28.5,43.9,28.3,61c0,146.2,0,292.3,0,438.5c1.3,13.7,11.9,25.6,25,29.4c1.7,0.4,3.3,1.1,4.9,1.8h742.1
	c3.4-1.9,7.3-2.5,10.6-4.6c10.7-5.9,18.4-17.5,18.2-29.8C829,351.8,829.2,207.2,829.2,62.7z"/>
<g>
	<defs>
		<path id="SVGID_1_" d="M829.2,62.7c0-9.2-3.8-18.4-10.4-24.7c-6.9-6.8-16.8-9.8-26.4-9.6c-243.8,0.5-487.5,0.1-731.3,0.1
			C44,28.6,28.5,43.9,28.3,61c0,146.2,0,292.3,0,438.5c1.3,13.7,11.9,25.6,25,29.4c1.7,0.4,3.3,1.1,4.9,1.8h742.1
			c3.4-1.9,7.3-2.5,10.6-4.6c10.7-5.9,18.4-17.5,18.2-29.8C829,351.8,829.2,207.2,829.2,62.7z"/>
	</defs>
	<clipPath id="SVGID_2_">
		<use xlink:href="#SVGID_1_"  style="overflow:visible;"/>
	</clipPath>
	<path class="st1" d="M-7.3,413.4c0,0,182.3-153.4,446.3-56.4s405-60,405-60v254H15C15,551-8.8,411.9-7.3,413.4z"/>
	<g class="st2">
		<path class="st3" d="M748.5,382.3c10.1-8.5,18.7-18.8,25.3-30.7c33.3-59.9,9.5-127.4-43.2-156.4c-1.9-1-4.1,0.6-3.7,2.7
			c3.6,16.1,3.2,32.9-1.1,50.1c-14.3,57-71.7,92.8-129.1,80.5c-10.9-2.3-21.1-6.2-30.4-11.4c-1.2-0.7-2.7,0.4-2.4,1.7
			c2.8,12.7,7.8,24.9,14.7,35.8c17.6-5.9,34.9-9.8,51.3-10.3C670.2,343.2,705.1,357.4,748.5,382.3z"/>
		<path class="st4" d="M864.7,453c-47.1-28.1-83.9-52.3-116.1-70.7c-18.4,15.5-41.6,24.8-66.3,25.8c-45.6,1.9-82.9-20.6-103.5-53.5
			C521.2,374,461.4,414.3,427.7,422c-44,10-99,15-196-51c-101.3-68.9-221-32-221-32L-3,576l907-19C904,557,992,528.9,864.7,453z"/>
		<path class="st3" d="M682.2,408.1c24.7-1,47.9-10.4,66.3-25.8c-43.4-24.8-78.3-39.1-118.5-37.9c-16.3,0.5-33.7,4.4-51.3,10.3
			C599.3,387.5,636.7,410,682.2,408.1z"/>
		<path class="st5" d="M682.2,408.1c24.7-1,47.9-10.4,66.3-25.8c-43.4-24.8-78.3-39.1-118.5-37.9c-16.3,0.5-33.7,4.4-51.3,10.3
			C599.3,387.5,636.7,410,682.2,408.1z"/>
	</g>
</g>
<circle class="st6" cx="157.5" cy="124.8" r="43"/>
<circle class="st3" cx="138.7" cy="119.7" r="43"/>
</svg>
